# xmcd
#
# Track frame offsets: 
#        150
#        19900
#        40680
#        59282
#        80285
#        98767
#        116787
#        138852
#        157567
#        181995
#
# Disc length: 2674 seconds
#
# Revision: 3
# Processed by: cddbd v1.5.2PL0 Copyright (c) Steve Scherf et al.
# Submitted via: ExactAudioCopy v1.0b3
#
DISCID=6f0a700a
DTITLE=Genai - Heavens Not So Far Away
DYEAR=2000
DGENRE=Soul
TTITLE0=Heavens Not So Far Away
TTITLE1=Afraid To Love
TTITLE2=Just The Way You Are
TTITLE3=Melody Sweet
TTITLE4=Wave
TTITLE5=What You Call Love
TTITLE6=Corcovado〜How Insensitive
TTITLE7=Kiss Of Life
TTITLE8=A Little More Time
TTITLE9=Cry Is All I Do
EXTD=
EXTT0=
EXTT1=
EXTT2=
EXTT3=
EXTT4=
EXTT5=
EXTT6=
EXTT7=
EXTT8=
EXTT9=
PLAYORDER=
